<?xml version="1.0" standalone="no"?>
<!DOCTYPE svg PUBLIC "-//W3C//DTD SVG 20010904//EN"
 "http://www.w3.org/TR/2001/REC-SVG-20010904/DTD/svg10.dtd">
<svg version="1.0" xmlns="http://www.w3.org/2000/svg"
 width="180.000000pt" height="180.000000pt" viewBox="0 0 180.000000 180.000000"
 preserveAspectRatio="xMidYMid meet">
<metadata>
Created by potrace 1.16, written by Peter Selinger 2001-2019
</metadata>
<g transform="translate(0.000000,180.000000) scale(0.100000,-0.100000)"
fill="#000000" stroke="none">
<path d="M0 900 l0 -900 900 0 900 0 0 900 0 900 -900 0 -900 0 0 -900z m936
553 l30 15 132 -264 132 -264 110 0 110 0 0 -45 0 -45 -85 0 c-47 0 -85 -2
-85 -5 0 -3 51 -108 114 -233 l114 -229 -62 -30 -62 -31 -132 264 c-107 214
-136 264 -152 264 -17 0 -20 7 -20 40 0 30 -21 83 -87 215 l-88 175 -87 -172
c-67 -134 -87 -183 -87 -215 -1 -36 -4 -43 -21 -43 -16 0 -45 -50 -152 -264
l-132 -264 -62 31 -62 30 114 229 c63 125 114 230 114 233 0 3 -38 5 -85 5
l-85 0 0 45 0 45 110 0 110 0 132 264 132 264 31 -15 c28 -14 35 -14 61 0z"/>
</g>
</svg>
